<svg xmlns="http://www.w3.org/2000/svg">

  <path id="tick" d="M5.5 12.5L10.167 17L19.5 8"  stroke-width="1.5" stroke-linecap="round" stroke-linejoin="round"/>

  <path id="incoming" fill-rule="evenodd" d="M5.509 2h4.982a2 2 0 0 1 1.923 1.45l1.509 5.28c.051.18.077.365.077.55V12a2 2 0 0 1-2 2H4a2 2 0 0 1-2-2V9.28a2 2 0 0 1 .077-.55l1.509-5.28A2 2 0 0 1 5.509 2Zm0 1a1 1 0 0 0-.962.726l-1.509 5.28A1 1 0 0 0 3 9.28V12a1 1 0 0 0 1 1h8a1 1 0 0 0 1-1V9.28a.997.997 0 0 0-.039-.274l-1.508-5.28A1 1 0 0 0 10.49 3H5.51Zm4.685 7a2.25 2.25 0 0 1-4.388 0H4.5a.5.5 0 1 1 0-1h1.75a.5.5 0 0 1 .5.5 1.25 1.25 0 0 0 2.5 0 .5.5 0 0 1 .5-.5h1.75a.5.5 0 0 1 0 1h-1.306Z" clip-rule="evenodd"></path>

</svg>